<?xml version="1.0" standalone="no"?>
<!DOCTYPE svg PUBLIC "-//W3C//DTD SVG 20010904//EN"
 "http://www.w3.org/TR/2001/REC-SVG-20010904/DTD/svg10.dtd">
<svg version="1.0" xmlns="http://www.w3.org/2000/svg"
 width="620.000000pt" height="622.000000pt" viewBox="0 0 620.000000 622.000000"
 preserveAspectRatio="xMidYMid meet">

<g transform="translate(0.000000,622.000000) scale(0.100000,-0.100000)"
fill="#000000" stroke="none">
<path d="M2915 5779 c-506 -34 -1019 -224 -1423 -527 -576 -433 -940 -1045
-1059 -1784 -24 -147 -24 -601 0 -746 106 -652 408 -1218 866 -1625 261 -231
525 -394 836 -512 532 -204 1094 -235 1651 -91 139 36 384 126 495 182 546
273 961 688 1230 1229 381 768 373 1658 -22 2423 -436 846 -1265 1387 -2224
1452 -165 11 -177 11 -350 -1z m-73 -2211 l3 -103 113 -3 113 -3 -6 -34 c-3
-19 -7 -51 -10 -70 l-6 -35 -104 0 -105 0 0 -286 0 -286 28 -28 c37 -37 90
-46 165 -31 33 7 61 11 63 9 11 -12 -27 -89 -61 -124 -50 -52 -102 -68 -206
-62 -122 7 -193 60 -225 165 -11 35 -14 120 -14 344 l0 298 -57 3 -58 3 170
172 c94 95 175 172 182 173 9 0 13 -30 15 -102z m1823 -106 c19 -12 35 -33 45
-60 13 -37 13 -47 0 -84 -31 -90 -122 -112 -200 -49 -46 37 -69 39 -97 9 -54
-59 -58 -79 -61 -310 -3 -192 4 -320 24 -410 l6 -28 -157 0 -157 0 6 23 c19
69 27 230 24 462 l-3 260 -29 58 c-15 32 -26 60 -25 62 9 9 283 83 291 79 4
-3 8 -49 9 -102 l0 -97 23 51 c13 28 41 70 61 93 62 68 164 86 240 43z m526
14 c173 -33 269 -168 269 -376 l0 -60 -275 0 -275 0 0 -44 c0 -24 9 -74 21
-111 26 -85 91 -157 159 -176 106 -29 244 -5 324 56 42 32 46 33 46 14 0 -34
-60 -137 -103 -175 -22 -20 -65 -48 -96 -63 -49 -23 -68 -26 -161 -26 -89 0
-115 4 -168 25 -169 67 -259 202 -269 400 -16 314 164 540 437 548 14 1 55 -4
91 -12z m-4141 -93 l0 -98 30 51 c58 102 138 144 274 144 64 0 92 -5 132 -24
45 -21 55 -32 80 -82 l29 -59 6 -350 c4 -216 11 -363 18 -385 6 -19 11 -38 11
-42 0 -5 -70 -8 -156 -8 l-156 0 7 28 c4 15 10 172 12 350 5 362 5 360 -63
382 -47 16 -135 7 -177 -17 l-32 -19 0 -315 c0 -173 4 -335 8 -361 l8 -48
-156 0 c-140 0 -156 2 -151 16 20 52 27 180 24 445 l-3 294 -28 54 c-15 30
-26 55 -25 56 5 5 282 83 296 84 9 1 12 -25 12 -96z m1218 72 c55 -23 117 -93
131 -150 7 -27 11 -146 11 -304 0 -257 0 -260 23 -287 19 -22 31 -26 70 -26
46 1 47 1 41 -26 -22 -93 -95 -152 -191 -152 -75 0 -132 34 -164 98 l-26 52
-31 -50 c-25 -41 -43 -56 -88 -77 -49 -22 -66 -25 -135 -21 -64 4 -87 10 -126
34 -87 53 -127 177 -87 272 32 78 98 125 281 202 102 43 157 83 174 128 14 36
11 108 -7 151 -38 95 -189 94 -209 -2 -14 -64 -38 -108 -66 -122 -54 -29 -120
-12 -145 36 -19 37 -17 65 5 115 28 61 99 110 203 139 74 21 277 15 336 -10z
m1124 -337 c3 -382 4 -390 58 -421 56 -33 188 -12 228 36 21 25 12 593 -10
660 -16 46 -16 47 5 51 23 5 233 26 254 26 8 0 13 -106 16 -412 2 -228 9 -429
14 -448 5 -19 13 -45 17 -57 l7 -23 -140 0 -140 0 -3 83 -3 82 -32 -51 c-61
-99 -146 -140 -269 -131 -130 10 -210 73 -241 189 -9 37 -13 126 -13 308 0
146 -5 283 -12 320 -21 123 -28 113 92 126 58 6 119 12 137 12 l32 2 3 -352z"/>
<path d="M5020 3353 c-19 -10 -45 -36 -57 -58 -23 -41 -58 -173 -49 -183 6 -5
279 16 304 24 29 8 -7 170 -44 205 -32 30 -108 36 -154 12z"/>
<path d="M2135 3020 c-4 -6 -37 -26 -73 -44 -104 -53 -132 -93 -132 -189 0
-62 27 -112 68 -128 45 -18 113 -5 139 26 22 25 23 34 23 186 0 145 -6 180
-25 149z"/>
</g>
</svg>
